<svg width="342" height="121" viewBox="0 0 342 121" fill="none" xmlns="http://www.w3.org/2000/svg">
<path d="M-1.4782e-05 26.88H13.952C13.952 27.648 13.9093 28.416 13.824 29.184C13.7387 29.952 13.568 30.7627 13.312 31.616C13.1413 32.384 12.8853 33.1947 12.544 34.048C12.2027 34.9013 11.8187 35.84 11.392 36.864L14.976 37.888C17.1947 33.792 20.3093 30.72 24.32 28.672C28.416 26.624 33.152 25.6 38.528 25.6C42.112 25.6 45.5253 26.1973 48.768 27.392C52.096 28.5867 54.9547 30.4213 57.344 32.896C59.8187 35.3707 61.7813 38.5707 63.232 42.496C64.768 46.336 65.536 50.944 65.536 56.32C65.536 61.6107 64.768 66.2187 63.232 70.144C61.7813 74.0693 59.8187 77.2693 57.344 79.744C54.9547 82.2187 52.096 84.0533 48.768 85.248C45.5253 86.4427 42.112 87.04 38.528 87.04C33.152 87.04 28.416 86.016 24.32 83.968C20.3093 81.92 17.1947 78.848 14.976 74.752L11.392 75.776C11.8187 76.8 12.2027 77.8667 12.544 78.976C12.8853 80.0853 13.1413 81.2373 13.312 82.432C13.568 83.6267 13.7387 84.9493 13.824 86.4C13.9093 87.936 13.952 89.6427 13.952 91.52V120.32H-1.4782e-05V26.88ZM13.952 45.44V67.2C14.5493 68.0533 15.4027 68.992 16.512 70.016C17.6213 70.9547 18.9867 71.8507 20.608 72.704C22.2293 73.472 24.0213 74.112 25.984 74.624C28.032 75.136 30.2933 75.392 32.768 75.392C35.4987 75.392 38.016 75.0507 40.32 74.368C42.624 73.6853 44.5867 72.576 46.208 71.04C47.9147 69.504 49.1947 67.5413 50.048 65.152C50.9867 62.6773 51.456 59.7333 51.456 56.32C51.456 52.9067 50.9867 50.0053 50.048 47.616C49.1947 45.1413 47.9147 43.136 46.208 41.6C44.5867 40.064 42.624 38.9547 40.32 38.272C38.016 37.5893 35.4987 37.248 32.768 37.248C30.2933 37.248 28.032 37.504 25.984 38.016C24.0213 38.528 22.2293 39.2107 20.608 40.064C18.9867 40.832 17.6213 41.728 16.512 42.752C15.4027 43.6907 14.5493 44.5867 13.952 45.44ZM124.271 65.28V59.776H105.071C102.511 59.776 100.207 59.904 98.159 60.16C96.1963 60.416 94.4897 60.8427 93.039 61.44C91.6737 62.0373 90.607 62.848 89.839 63.872C89.071 64.896 88.687 66.176 88.687 67.712C88.687 69.1627 89.071 70.4 89.839 71.424C90.6923 72.3627 91.759 73.1733 93.039 73.856C94.319 74.4533 95.8123 74.88 97.519 75.136C99.311 75.392 101.146 75.52 103.023 75.52C106.607 75.52 109.722 75.264 112.367 74.752C115.012 74.1547 117.188 73.3867 118.895 72.448C120.687 71.424 122.01 70.3147 122.863 69.12C123.802 67.84 124.271 66.56 124.271 65.28ZM126.703 75.776L123.119 74.752C120.9 78.848 117.786 81.92 113.775 83.968C109.764 86.016 105.071 87.04 99.695 87.04C96.5377 87.04 93.4657 86.656 90.479 85.888C87.4923 85.12 84.8043 83.968 82.415 82.432C80.111 80.8107 78.2337 78.8053 76.783 76.416C75.4177 74.0267 74.735 71.2533 74.735 68.096C74.735 64.8533 75.4177 62.08 76.783 59.776C78.1483 57.472 79.983 55.5947 82.287 54.144C84.6763 52.6933 87.4923 51.6267 90.735 50.944C94.063 50.2613 97.6043 49.92 101.359 49.92H124.143V49.28C124.143 45.44 122.735 42.368 119.919 40.064C117.103 37.6747 113.05 36.48 107.759 36.48C102.468 36.48 98.6283 37.2053 96.239 38.656C93.8497 40.1067 92.399 42.112 91.887 44.672H77.935C78.1057 41.856 78.8737 39.296 80.239 36.992C81.6043 34.6027 83.4817 32.5973 85.871 30.976C88.3457 29.2693 91.375 27.9467 94.959 27.008C98.6283 26.0693 102.81 25.6 107.503 25.6C111.94 25.6 116.036 26.1973 119.791 27.392C123.546 28.5013 126.746 30.1227 129.391 32.256C132.122 34.304 134.255 36.8213 135.791 39.808C137.327 42.7093 138.095 45.9947 138.095 49.664V85.76H124.143C124.143 84.9067 124.186 84.1387 124.271 83.456C124.356 82.688 124.484 81.92 124.655 81.152C124.911 80.2987 125.21 79.4453 125.551 78.592C125.892 77.7387 126.276 76.8 126.703 75.776ZM212.821 57.6V85.76H198.741V57.6C198.741 53.8453 198.272 50.688 197.333 48.128C196.48 45.568 195.242 43.4773 193.621 41.856C192.085 40.2347 190.25 39.0827 188.117 38.4C185.984 37.632 183.68 37.248 181.205 37.248C179.413 37.248 177.664 37.504 175.957 38.016C174.336 38.528 172.8 39.2107 171.349 40.064C169.898 40.832 168.618 41.728 167.509 42.752C166.485 43.6907 165.674 44.5867 165.077 45.44V85.76H151.125V26.88H165.077C165.077 27.648 165.034 28.416 164.949 29.184C164.864 29.952 164.693 30.7627 164.437 31.616C164.266 32.384 164.01 33.1947 163.669 34.048C163.328 34.9013 162.944 35.84 162.517 36.864L166.101 37.888C167.21 35.84 168.533 34.048 170.069 32.512C171.605 30.976 173.269 29.696 175.061 28.672C176.938 27.648 178.901 26.88 180.949 26.368C182.997 25.856 185.002 25.6 186.965 25.6C190.293 25.6 193.493 26.1973 196.565 27.392C199.637 28.5867 202.368 30.5067 204.757 33.152C207.232 35.712 209.194 39.04 210.645 43.136C212.096 47.1467 212.821 51.968 212.821 57.6ZM256.378 75.264C262.522 75.264 267.173 73.6853 270.33 70.528C273.487 67.3707 275.066 62.6347 275.066 56.32C275.066 50.0053 273.487 45.2693 270.33 42.112C267.173 38.9547 262.522 37.376 256.378 37.376C250.234 37.376 245.541 38.9547 242.298 42.112C239.141 45.2693 237.562 50.0053 237.562 56.32C237.562 62.6347 239.141 67.3707 242.298 70.528C245.541 73.6853 250.234 75.264 256.378 75.264ZM256.378 25.6C261.498 25.6 266.063 26.3253 270.074 27.776C274.17 29.1413 277.626 31.1467 280.442 33.792C283.258 36.352 285.391 39.552 286.842 43.392C288.378 47.1467 289.146 51.456 289.146 56.32C289.146 61.184 288.378 65.536 286.842 69.376C285.391 73.1307 283.258 76.3307 280.442 78.976C277.626 81.6213 274.17 83.6267 270.074 84.992C266.063 86.3573 261.498 87.04 256.378 87.04C245.967 87.04 237.903 84.3947 232.186 79.104C226.469 73.728 223.61 66.1333 223.61 56.32C223.61 46.592 226.469 39.04 232.186 33.664C237.903 28.288 245.967 25.6 256.378 25.6ZM325.722 13.312C325.722 16.384 325.381 18.7733 324.698 20.48C324.015 22.1867 322.778 23.552 320.986 24.576L321.882 28.288C323.333 27.6907 324.826 27.3067 326.362 27.136C327.898 26.9653 329.605 26.88 331.482 26.88H341.338V38.656H325.722V67.584C325.722 68.864 325.807 69.9307 325.978 70.784C326.149 71.552 326.405 72.192 326.746 72.704C327.173 73.1307 327.727 73.472 328.41 73.728C329.093 73.8987 330.031 73.984 331.226 73.984H336.218V85.76H331.226C327.983 85.76 325.167 85.5467 322.778 85.12C320.389 84.608 318.341 83.7973 316.634 82.688C315.013 81.4933 313.775 79.872 312.922 77.824C312.154 75.776 311.77 73.1733 311.77 70.016V38.656H299.61V26.88H311.77V0H325.722V13.312Z" fill="black"/>
</svg>
