<svg width="465" height="164" viewBox="0 0 465 164" fill="none" xmlns="http://www.w3.org/2000/svg">
<path d="M407.985 52.6387V36.6031H424.544V0H443.542V18.1272C443.542 22.1942 443.02 25.4478 441.974 27.888C441.044 30.212 439.417 32.0713 437.093 33.4657L438.313 38.3461C440.289 37.6489 442.322 37.1841 444.414 36.9517C446.506 36.7193 448.83 36.6031 451.386 36.6031H464.807V52.6387H443.542V92.0306C443.542 95.4004 444.007 97.7244 444.937 99.0026C445.983 100.165 448.016 100.746 451.037 100.746H457.835V116.781H451.037C446.738 116.781 442.903 116.491 439.534 115.91C436.28 115.212 433.491 114.05 431.167 112.424C428.959 110.797 427.274 108.647 426.112 105.975C425.067 103.186 424.544 99.6417 424.544 95.3423V52.6387H407.985Z" fill="white"/>
<path d="M304.494 76.6921C304.494 63.329 308.387 53.0453 316.172 45.8409C323.958 38.5203 334.939 34.86 349.115 34.86C363.175 34.86 374.098 38.5203 381.884 45.8409C389.785 53.0453 393.736 63.329 393.736 76.6921C393.736 90.0551 389.785 100.397 381.884 107.718C374.098 114.922 363.175 118.524 349.115 118.524C334.939 118.524 323.958 114.922 316.172 107.718C308.387 100.397 304.494 90.0551 304.494 76.6921ZM323.493 76.6921C323.493 85.1747 325.643 91.6238 329.942 96.0394C334.358 100.339 340.749 102.488 349.115 102.488C357.482 102.488 363.815 100.339 368.114 96.0394C372.53 91.6238 374.737 85.1747 374.737 76.6921C374.737 68.2094 372.53 61.8184 368.114 57.519C363.815 53.1034 357.482 50.8956 349.115 50.8956C340.749 50.8956 334.358 53.1034 329.942 57.519C325.643 61.8184 323.493 68.2094 323.493 76.6921Z" fill="white"/>
<path d="M205.79 36.603H224.789C224.789 38.927 224.498 41.0767 223.917 43.0521C223.452 44.9113 222.581 47.2934 221.303 50.1984L226.183 51.5928C229.204 46.0152 233.271 41.832 238.384 39.0432C243.613 36.2544 249.017 34.86 254.594 34.86C259.126 34.86 263.483 35.6734 267.667 37.3002C271.85 38.927 275.568 41.5415 278.822 45.1437C282.192 48.6297 284.864 53.1615 286.84 58.7391C288.815 64.2005 289.803 70.7659 289.803 78.4351V116.781H270.804V78.4351C270.804 73.3223 270.165 69.0228 268.887 65.5368C267.725 61.9346 266.04 59.0877 263.832 56.9961C261.624 54.7883 259.068 53.2196 256.163 52.29C253.258 51.2442 250.12 50.7213 246.751 50.7213C244.31 50.7213 241.928 51.0699 239.604 51.7671C237.397 52.4643 235.305 53.3939 233.33 54.5559C231.47 55.6017 229.785 56.8218 228.275 58.2162C226.764 59.4944 225.602 60.7145 224.789 61.8765V116.781H205.79V36.603Z" fill="white"/>
<path d="M101.768 92.7277C101.768 88.3121 102.698 84.5356 104.557 81.3982C106.416 78.2608 108.914 75.7044 112.052 73.729C115.306 71.7536 119.14 70.301 123.556 69.3714C127.971 68.4418 132.794 67.977 138.023 67.977H169.048V67.1055C169.048 61.8765 167.131 57.6933 163.296 54.5559C159.462 51.3023 153.942 49.6755 146.738 49.6755C139.533 49.6755 134.304 50.6632 131.051 52.6386C127.797 54.614 125.822 57.3447 125.124 60.8307H106.126C106.707 53.1615 110.309 46.9448 116.932 42.1806C123.672 37.3002 133.491 34.86 146.389 34.86C152.548 34.86 158.125 35.6734 163.122 37.3002C168.235 38.8108 172.65 41.0186 176.369 43.9236C180.087 46.7124 182.934 50.1403 184.909 54.2073C187.001 58.1581 188.047 62.6318 188.047 67.6284V116.781H169.048C169.048 114.457 169.28 112.366 169.745 110.506C170.326 108.531 171.256 106.091 172.534 103.186L167.654 101.791C164.632 107.369 160.391 111.552 154.93 114.341C149.468 117.13 143.077 118.524 135.757 118.524C131.457 118.524 127.274 118.001 123.207 116.955C119.14 115.91 115.48 114.341 112.226 112.249C109.089 110.042 106.532 107.311 104.557 104.057C102.698 100.804 101.768 97.0271 101.768 92.7277ZM143.077 81.3982C136.105 81.3982 130.644 82.1535 126.693 83.6641C122.742 85.1747 120.767 88.0216 120.767 92.2048C120.767 94.064 121.29 95.6908 122.336 97.0852C123.381 98.4796 124.776 99.5835 126.519 100.397C128.378 101.21 130.47 101.849 132.794 102.314C135.234 102.663 137.732 102.837 140.289 102.837C145.169 102.837 149.41 102.43 153.012 101.617C156.615 100.804 159.636 99.7578 162.076 98.4796C164.516 97.0852 166.317 95.5746 167.479 93.9478C168.641 92.321 169.222 90.6361 169.222 88.8931V81.3982H143.077Z" fill="white"/>
<path d="M0 163.842V36.603H18.9987C18.9987 38.927 18.7082 41.0767 18.1272 43.0521C17.6624 44.9113 16.7909 47.2934 15.5127 50.1984L20.3931 51.5928C23.4143 46.0152 27.6556 41.832 33.1171 39.0432C38.6947 36.2544 45.1438 34.86 52.4644 34.86C57.3448 34.86 61.9928 35.6734 66.4084 37.3002C70.824 38.927 74.7167 41.4834 78.0865 44.9694C81.5725 48.3392 84.3032 52.6386 86.2786 57.8676C88.2541 63.0966 89.2418 69.3714 89.2418 76.6921C89.2418 84.0127 88.2541 90.2875 86.2786 95.5165C84.3032 100.745 81.5725 105.103 78.0865 108.589C74.7167 111.959 70.824 114.457 66.4084 116.084C61.9928 117.711 57.3448 118.524 52.4644 118.524C45.1438 118.524 38.6947 117.13 33.1171 114.341C27.6556 111.552 23.4143 107.369 20.3931 101.791L15.5127 103.186C16.7909 106.091 17.6624 109.112 18.1272 112.249C18.7082 115.387 18.9987 119.512 18.9987 124.625V163.842H0ZM18.9987 91.5076C19.8121 92.6696 20.9741 93.9478 22.4847 95.3422C23.9953 96.6204 25.8545 97.8405 28.0623 99.0025C30.2702 100.048 32.7685 100.92 35.5573 101.617C38.3461 102.314 41.3673 102.663 44.6209 102.663C52.1739 102.663 58.3325 100.687 63.0967 96.7366C67.8609 92.6696 70.243 85.9881 70.243 76.6921C70.243 67.396 67.8609 60.7726 63.0967 56.8218C58.3325 52.7548 52.1739 50.7213 44.6209 50.7213C41.3673 50.7213 38.3461 51.0699 35.5573 51.7671C32.7685 52.4643 30.2702 53.3939 28.0623 54.5559C25.8545 55.6017 23.9953 56.8218 22.4847 58.2162C20.9741 59.4944 19.8121 60.7145 18.9987 61.8765V91.5076Z" fill="white"/>
</svg>
