<svg width="552" height="231" viewBox="0 0 552 231" fill="none" xmlns="http://www.w3.org/2000/svg">
<path d="M407.985 119.096V103.061H424.544V66.4575H443.542V84.5847C443.542 88.6518 443.02 91.9054 441.974 94.3456C441.044 96.6696 439.417 98.5288 437.093 99.9232L438.313 104.804C440.289 104.106 442.322 103.642 444.414 103.409C446.506 103.177 448.83 103.061 451.386 103.061H464.807V119.096H443.542V158.488C443.542 161.858 444.007 164.182 444.937 165.46C445.983 166.622 448.016 167.203 451.037 167.203H457.835V183.239H451.037C446.738 183.239 442.903 182.948 439.534 182.367C436.28 181.67 433.491 180.508 431.167 178.881C428.959 177.254 427.274 175.105 426.112 172.432C425.067 169.643 424.544 166.099 424.544 161.8V119.096H407.985Z" fill="white"/>
<path d="M304.494 143.15C304.494 129.787 308.387 119.503 316.172 112.298C323.958 104.978 334.939 101.318 349.115 101.318C363.175 101.318 374.098 104.978 381.884 112.298C389.785 119.503 393.736 129.787 393.736 143.15C393.736 156.513 389.785 166.854 381.884 174.175C374.098 181.379 363.175 184.982 349.115 184.982C334.939 184.982 323.958 181.379 316.172 174.175C308.387 166.854 304.494 156.513 304.494 143.15ZM323.493 143.15C323.493 151.632 325.643 158.081 329.942 162.497C334.358 166.796 340.749 168.946 349.115 168.946C357.482 168.946 363.815 166.796 368.114 162.497C372.53 158.081 374.737 151.632 374.737 143.15C374.737 134.667 372.53 128.276 368.114 123.977C363.815 119.561 357.482 117.353 349.115 117.353C340.749 117.353 334.358 119.561 329.942 123.977C325.643 128.276 323.493 134.667 323.493 143.15Z" fill="white"/>
<path d="M205.79 103.061H224.789C224.789 105.385 224.498 107.534 223.917 109.51C223.452 111.369 222.581 113.751 221.303 116.656L226.183 118.05C229.204 112.473 233.271 108.29 238.384 105.501C243.613 102.712 249.017 101.318 254.594 101.318C259.126 101.318 263.483 102.131 267.667 103.758C271.85 105.385 275.568 107.999 278.822 111.601C282.192 115.087 284.864 119.619 286.84 125.197C288.815 130.658 289.803 137.223 289.803 144.893V183.239H270.804V144.893C270.804 139.78 270.165 135.48 268.887 131.994C267.725 128.392 266.04 125.545 263.832 123.454C261.624 121.246 259.068 119.677 256.163 118.748C253.258 117.702 250.12 117.179 246.751 117.179C244.31 117.179 241.928 117.527 239.604 118.225C237.397 118.922 235.305 119.851 233.33 121.013C231.47 122.059 229.785 123.279 228.275 124.674C226.764 125.952 225.602 127.172 224.789 128.334V183.239H205.79V103.061Z" fill="white"/>
<path d="M101.768 159.185C101.768 154.77 102.698 150.993 104.557 147.856C106.416 144.718 108.914 142.162 112.052 140.186C115.306 138.211 119.14 136.759 123.556 135.829C127.971 134.899 132.794 134.435 138.023 134.435H169.048V133.563C169.048 128.334 167.131 124.151 163.296 121.013C159.462 117.76 153.942 116.133 146.738 116.133C139.533 116.133 134.304 117.121 131.051 119.096C127.797 121.072 125.822 123.802 125.124 127.288H106.126C106.707 119.619 110.309 113.402 116.932 108.638C123.672 103.758 133.491 101.318 146.389 101.318C152.548 101.318 158.125 102.131 163.122 103.758C168.235 105.268 172.65 107.476 176.369 110.381C180.087 113.17 182.934 116.598 184.909 120.665C187.001 124.616 188.047 129.089 188.047 134.086V183.239H169.048C169.048 180.915 169.28 178.823 169.745 176.964C170.326 174.988 171.256 172.548 172.534 169.643L167.654 168.249C164.632 173.826 160.391 178.01 154.93 180.798C149.468 183.587 143.077 184.982 135.757 184.982C131.457 184.982 127.274 184.459 123.207 183.413C119.14 182.367 115.48 180.798 112.226 178.707C109.089 176.499 106.532 173.768 104.557 170.515C102.698 167.261 101.768 163.485 101.768 159.185ZM143.077 147.856C136.105 147.856 130.644 148.611 126.693 150.122C122.742 151.632 120.767 154.479 120.767 158.662C120.767 160.521 121.29 162.148 122.336 163.543C123.381 164.937 124.776 166.041 126.519 166.854C128.378 167.668 130.47 168.307 132.794 168.772C135.234 169.12 137.732 169.295 140.289 169.295C145.169 169.295 149.41 168.888 153.012 168.075C156.615 167.261 159.636 166.215 162.076 164.937C164.516 163.543 166.317 162.032 167.479 160.405C168.641 158.778 169.222 157.094 169.222 155.351V147.856H143.077Z" fill="white"/>
<path d="M0 230.3V103.061H18.9987C18.9987 105.385 18.7082 107.534 18.1272 109.51C17.6624 111.369 16.7909 113.751 15.5127 116.656L20.3931 118.05C23.4143 112.473 27.6556 108.29 33.1171 105.501C38.6947 102.712 45.1438 101.318 52.4644 101.318C57.3448 101.318 61.9928 102.131 66.4084 103.758C70.824 105.385 74.7167 107.941 78.0865 111.427C81.5725 114.797 84.3032 119.096 86.2786 124.325C88.2541 129.554 89.2418 135.829 89.2418 143.15C89.2418 150.47 88.2541 156.745 86.2786 161.974C84.3032 167.203 81.5725 171.561 78.0865 175.047C74.7167 178.416 70.824 180.915 66.4084 182.541C61.9928 184.168 57.3448 184.982 52.4644 184.982C45.1438 184.982 38.6947 183.587 33.1171 180.798C27.6556 178.01 23.4143 173.826 20.3931 168.249L15.5127 169.643C16.7909 172.548 17.6624 175.569 18.1272 178.707C18.7082 181.844 18.9987 185.969 18.9987 191.082V230.3H0ZM18.9987 157.965C19.8121 159.127 20.9741 160.405 22.4847 161.8C23.9953 163.078 25.8545 164.298 28.0623 165.46C30.2702 166.506 32.7685 167.377 35.5573 168.075C38.3461 168.772 41.3673 169.12 44.6209 169.12C52.1739 169.12 58.3325 167.145 63.0967 163.194C67.8609 159.127 70.243 152.446 70.243 143.15C70.243 133.854 67.8609 127.23 63.0967 123.279C58.3325 119.212 52.1739 117.179 44.6209 117.179C41.3673 117.179 38.3461 117.527 35.5573 118.225C32.7685 118.922 30.2702 119.851 28.0623 121.013C25.8545 122.059 23.9953 123.279 22.4847 124.674C20.9741 125.952 19.8121 127.172 18.9987 128.334V157.965Z" fill="white"/>
<path d="M552 42.4578C552 65.9065 532.991 84.9155 509.542 84.9155C486.093 84.9155 467.084 65.9065 467.084 42.4578C467.084 19.009 486.093 0 509.542 0C532.991 0 552 19.009 552 42.4578Z" fill="#FF5117"/>
</svg>
